<?xml version="1.0" ?><svg data-name="Слой 1" id="Слой_1" viewBox="0 0 32 32" xmlns="http://www.w3.org/2000/svg"><path d="M12.0834,10.6a.4615.4615,0,0,0-.1416.0371,10.1153,10.1153,0,0,0-5.958,8.1416.4915.4915,0,0,0-.0117.1065,10.0613,10.0613,0,0,0,9.376,11.0361q.331.0213.6592.021a9.9876,9.9876,0,0,0,6.89-2.73,10.0488,10.0488,0,0,0,.62-14.0371.4627.4627,0,0,0-.1762-.1938A10.1013,10.1013,0,0,0,19.726,10.51a8.2084,8.2084,0,0,0,6.3516-7.9815.471.471,0,0,0-.4707-.4707H23.766a8.2111,8.2111,0,0,0-7.7778,5.6192A6.7013,6.7013,0,0,0,9.8149,3.5657H8.3334a.4706.4706,0,0,0-.4707.47A6.7017,6.7017,0,0,0,12.5209,10.41c-.0766.03-.16.0532-.2353.0859A1.497,1.497,0,0,0,12.0834,10.6ZM11.809,11.743a2.4779,2.4779,0,0,0,1.3,1.0522,5.3624,5.3624,0,0,0,2.22.1783,4.0794,4.0794,0,0,1,2.0889.2119.6207.6207,0,0,1,.37.4619c.0078.0859.0283.2871-.3838.5527a1.6551,1.6551,0,0,1-.7754.2217,3.2134,3.2134,0,0,0-2.31,1.4634,8.7371,8.7371,0,0,0-.98,2.2251l-.164.4863a4.02,4.02,0,0,1-1.6573,2.39.6206.6206,0,0,1-.6308.0054c-.2-.1391-.211-.3266-.1914-.7876.0068-.1484.0127-.2978.0058-.4429A2.4762,2.4762,0,0,0,8.893,17.5345a2.2506,2.2506,0,0,0-.5674-.07,2.9343,2.9343,0,0,0-1.206.2714A9.1725,9.1725,0,0,1,11.809,11.743Zm1.6035,16.8779a2.6339,2.6339,0,0,0,.42-.62,1.765,1.765,0,0,0-.2939-2.082,2.5378,2.5378,0,0,0-.498-.3233c-.167-.09-.3252-.1738-.3633-.2617s.0215-.2925.3008-.6084a2.9644,2.9644,0,0,1,.8544-.7285.9624.9624,0,0,1,.8428-.044,1.8017,1.8017,0,0,1,.5488.6084,2.8366,2.8366,0,0,0,.7813.8526A2.78,2.78,0,0,0,17.2,25.761a4.61,4.61,0,0,1,.4815.0777.8707.8707,0,0,1,.52.3555.1406.1406,0,0,1,.02.1264.5418.5418,0,0,1-.3984.2227c-.1035.021-.21.0327-.3154.0444a2.9937,2.9937,0,0,0-.6924.1387A1.7965,1.7965,0,0,0,15.68,28.0535a1.7648,1.7648,0,0,0,.084.9341c-.1192-.0029-.2373.0029-.3574-.0044A9.0145,9.0145,0,0,1,13.4125,28.6209Zm8.84-2.0937c-.0713.0669-.149.1235-.2222.188a4.8149,4.8149,0,0,0-.689-3.2945,8.8715,8.8715,0,0,0-.9541-1.17c-.2265-.2471-.4531-.4932-.6552-.7588a2.3435,2.3435,0,0,1-.5733-1.8877c.1758-.6372.8-1.0649,1.461-1.5176.2226-.1533.4453-.3056.6513-.4663a6.1409,6.1409,0,0,0,2.0967-3.1362,9.1082,9.1082,0,0,1-1.1152,12.043Zm.3418-12.97a5.1712,5.1712,0,0,1-1.8994,3.32c-.1924.1495-.3995.2911-.6075.4327a3.9378,3.9378,0,0,0-1.8349,2.0439,3.139,3.139,0,0,0,.7324,2.71c.22.2871.4639.5552.709.8222a8.1961,8.1961,0,0,1,.8584,1.0455,3.8679,3.8679,0,0,1,.2251,3.7251,8.9988,8.9988,0,0,1-3.9517,1.2973.8162.8162,0,0,1,.3076-1.3428,2.2338,2.2338,0,0,1,.4815-.0888c.1308-.0152.2627-.0308.3916-.0567a1.3852,1.3852,0,0,0,1.1-.8261,1.0842,1.0842,0,0,0-.0772-.8926,1.7908,1.7908,0,0,0-1.1269-.8223,5.3911,5.3911,0,0,0-.584-.0967,2.0266,2.0266,0,0,1-.8066-.2075A2.0834,2.0834,0,0,1,16,24.0311a2.5779,2.5779,0,0,0-.8848-.91,1.8829,1.8829,0,0,0-1.6962.0308,3.8124,3.8124,0,0,0-1.1475.9516,1.4977,1.4977,0,0,0-.458,1.6031,1.5463,1.5463,0,0,0,.7822.7177,1.7978,1.7978,0,0,1,.3184.1973.845.845,0,0,1,.0781.957,1.6669,1.6669,0,0,1-.5864.68,9.0987,9.0987,0,0,1-5.5044-9.2144,1.8861,1.8861,0,0,1,1.7529-.6005A1.5374,1.5374,0,0,1,9.76,19.8065c.0058.1167,0,.2363-.0059.3564a1.6335,1.6335,0,0,0,.5947,1.6016,1.5468,1.5468,0,0,0,1.6065.0537,4.8366,4.8366,0,0,0,2.1064-2.9131l.168-.4985a7.8811,7.8811,0,0,1,.8652-1.9917,2.2726,2.2726,0,0,1,1.6075-1.0557,2.5463,2.5463,0,0,0,1.2109-.3691,1.4905,1.4905,0,0,0,.81-1.4346,1.5416,1.5416,0,0,0-.8877-1.2129,4.99,4.99,0,0,0-2.6143-.3047,4.4708,4.4708,0,0,1-1.792-.1269,1.61,1.61,0,0,1-.7617-.5557A8.5107,8.5107,0,0,1,16,10.7278,9.1015,9.1015,0,0,1,22.5942,13.5574ZM23.766,2.9979h1.3555a7.2691,7.2691,0,0,1-7.2441,6.79H16.5219A7.269,7.269,0,0,1,23.766,2.9979ZM8.8227,4.5062h.9922a5.7594,5.7594,0,0,1,5.7324,5.2812h-.9922A5.7594,5.7594,0,0,1,8.8227,4.5062Z"/></svg>