<?xml version="1.0" ?><svg data-name="Слой 1" id="Слой_1" viewBox="0 0 32 32" xmlns="http://www.w3.org/2000/svg"><path d="M25.3312,12.6741a6.1447,6.1447,0,0,0-2.71.6328l-1.7022-2.9111L22.214,8.0833a.47.47,0,0,0-.41-.7H18.4728a.47.47,0,1,0,0,.94h2.5283l-.9282,1.6582H11.8791V7.3982a.4705.4705,0,0,0-.4707-.47H7.7521a1.5537,1.5537,0,0,0,0,3.1074h1.17a.47.47,0,1,0,0-.94h-1.17a.6133.6133,0,0,1,0-1.2266h3.1856v2.461L9.2868,13.262a6.1581,6.1581,0,1,0,.8223.458l1.2924-2.2969,3.16,5.7935A2.1994,2.1994,0,1,0,18.152,19.343h1.0039a6.1963,6.1963,0,1,0,6.1753-6.6689ZM11.9269,18.8733a5.2578,5.2578,0,1,1-5.2578-5.2588,5.2085,5.2085,0,0,1,2.1533.4732L6.259,18.6423a.4706.4706,0,0,0,.82.4615l2.5654-4.5586A5.2528,5.2528,0,0,1,11.9269,18.8733Zm9.8814-5.0942a6.1941,6.1941,0,0,0-2.6524,4.6235H18.152a2.2066,2.2066,0,0,0-.9477-1.3721l3.1821-5.6831Zm.48.8217,2.2232,3.8018H20.1208A5.238,5.238,0,0,1,22.2887,14.6008Zm-5.12,3.8018h-.8891l-.4175-.7656A1.1822,1.1822,0,0,1,16,17.6091,1.2612,1.2612,0,0,1,17.1686,18.4026ZM12.2,10.9226h7.3457l-3.2344,5.7779A2.1089,2.1089,0,0,0,16,16.6687a2.1776,2.1776,0,0,0-.6133.0977ZM16,20.137a1.2648,1.2648,0,0,1-1.2637-1.2637,1.24,1.24,0,0,1,.2988-.7871l.5518,1.0117A.471.471,0,0,0,16,19.343h1.1684A1.2609,1.2609,0,0,1,16,20.137Zm9.331,3.9946a5.2472,5.2472,0,0,1-5.21-4.7886h5.21a.47.47,0,0,0,.4063-.707l-2.6353-4.5073a5.1974,5.1974,0,0,1,2.229-.5142,5.2586,5.2586,0,0,1,0,10.5171Z"/></svg>