<?xml version="1.0" ?><svg data-name="Слой 1" id="Слой_1" viewBox="0 0 32 32" xmlns="http://www.w3.org/2000/svg"><path d="M14.23,27.4114a.47.47,0,1,0,0,.9405h3.541a.47.47,0,1,0,0-.9405Z"/><path d="M20.2738,25.3875a.4709.4709,0,0,0-.4707-.4707H12.1967a.47.47,0,1,0,0,.94h7.6064A.47.47,0,0,0,20.2738,25.3875Z"/><path d="M24.2612,10.7527a7.1127,7.1127,0,0,0-7.1055-7.1044H14.8442A7.1035,7.1035,0,0,0,8.3217,13.57l4.0557,9.3872a.47.47,0,0,0,.4316.2837h6.3818a.47.47,0,0,0,.4317-.2837L23.6781,13.57A7.0505,7.0505,0,0,0,24.2612,10.7527Zm-1.4463,2.4444-3.9336,9.1035h-2.41V18.8514l4.0518-3.6968a.4706.4706,0,0,0-.6348-.6948l-3.417,3.1177V10.0906a.4707.4707,0,0,0-.9414,0v3.9327l-3.7275-3.4a.4707.4707,0,0,0-.6348.6953l4.2061,3.8364a.4708.4708,0,0,0,.1562.0933v7.0527H13.1186L9.185,13.1971a6.165,6.165,0,0,1,5.6592-8.6084h2.3115a6.1651,6.1651,0,0,1,5.6592,8.6084Z"/></svg>