<?xml version="1.0" ?><svg data-name="Слой 1" id="Слой_1" viewBox="0 0 32 32" xmlns="http://www.w3.org/2000/svg"><path d="M31.2738,17.93H25.3051V10.7312a.4032.4032,0,0,0-.01-.0474.4542.4542,0,0,0-.0175-.0883.43.43,0,0,0-.0826-.1553.47.47,0,0,0-.07-.07c-.0117-.0093-.0185-.0225-.0312-.0313L16.5785,4.6917a.47.47,0,0,0-.5195,0L7.5424,10.3391c-.0127.0088-.0195.022-.0312.0318a.4243.4243,0,0,0-.07.0693.4469.4469,0,0,0-.0825.1548.4669.4669,0,0,0-.0176.0888.4241.4241,0,0,0-.01.0474V17.93H.726a.47.47,0,1,0,0,.9405H31.2738a.47.47,0,1,0,0-.9405ZM16.3188,5.6477l6.956,4.6133H9.3617ZM12.3149,17.6194V13.6585h8.0068v3.9609Zm8.9482.3105V13.1887a.471.471,0,0,0-.4707-.4707H11.8442a.471.471,0,0,0-.4707.4707V17.93H8.2729V11.2014H24.3637V17.93Z"/><path d="M27.8178,20.0764H9.3324l.1827-.1826a.4706.4706,0,1,0-.6661-.665l-.8476.8476H5.49a1.7771,1.7771,0,1,0,0,3.5542H16.6733l-.1827.1826a.4707.4707,0,0,0,.6661.6651l.8476-.8477h5.05a.8367.8367,0,0,1,0,1.6734H9.8246l.2168-.2178a.47.47,0,1,0-.665-.665L8.3559,25.4417a.462.462,0,0,0-.1153.2163.4856.4856,0,0,0-.01.0527.4627.4627,0,0,0,.0239.2427v.001l.0015.0014a.4657.4657,0,0,0,.1.1509l1.1426,1.1426a.4706.4706,0,0,0,.666-.6651l-.34-.34H23.0541a1.7771,1.7771,0,1,0,0-3.5542h-5.05l-.8476-.8477a.4707.4707,0,1,0-.6661.6651l.1827.1826H5.49a.8367.8367,0,1,1,0-1.6733H8.0014l.8476.8476a.4706.4706,0,1,0,.6661-.665l-.1827-.1826H27.8178a.47.47,0,1,0,0-.9405Z"/></svg>