<?xml version="1.0" ?><svg data-name="Слой 1" id="Слой_1" viewBox="0 0 32 32" xmlns="http://www.w3.org/2000/svg"><path d="M22.7958,3.7825A8.21,8.21,0,0,0,15.018,9.4016,6.7012,6.7012,0,0,0,8.8446,5.2908H7.3632a.47.47,0,0,0-.4707.47,6.6992,6.6992,0,0,0,6.6924,6.6914h3.3222a8.2088,8.2088,0,0,0,8.2-8.1992.4709.4709,0,0,0-.4707-.4707Zm-9.2109,7.73A5.7593,5.7593,0,0,1,7.8525,6.2312h.9921a5.76,5.76,0,0,1,5.7325,5.2808Zm3.3222,0H15.5517a7.269,7.269,0,0,1,7.2441-6.7891h1.3555A7.2687,7.2687,0,0,1,16.9071,11.512Z"/><path d="M26.4091,15.9143a8.94,8.94,0,0,0-5.61-1.99h-9.6a.0759.0759,0,0,0-.05.01,8.88,8.88,0,0,0-8.84,8.88v4.93a.4782.4782,0,0,0,.48.47h26.43a.4694.4694,0,0,0,.47-.47v-4.93a8.5524,8.5524,0,0,0-.19-1.83A8.8352,8.8352,0,0,0,26.4091,15.9143Zm-17.64,7.12v4.24h-5.51v-4.46a7.6544,7.6544,0,0,1,.1-1.27h5.92A2.4176,2.4176,0,0,0,8.769,23.0344Zm3.92,4.24h-2.98v-4.24a1.49,1.49,0,1,1,2.98,0Zm-9.12-6.67a7.88,7.88,0,0,1,2.62-3.96,7.9757,7.9757,0,0,1,10.02,0,7.8936,7.8936,0,0,1,2.63,3.96Zm15.58,6.67h-5.52v-4.24a2.42,2.42,0,0,0-.51-1.49h5.93a7.6976,7.6976,0,0,1,.1,1.27Zm-2.35-11.36a8.148,8.148,0,0,0-1.64-1.05h5.64a7.9659,7.9659,0,0,1,7.64,5.74h-8.63A8.82,8.82,0,0,0,16.7992,15.9143Zm11.95,11.36h-8.66v-4.46a8.8233,8.8233,0,0,0-.09-1.27h8.65a7.6973,7.6973,0,0,1,.1,1.27Z"/></svg>