<?xml version="1.0" encoding="iso-8859-1"?>
<!-- Generator: Adobe Illustrator 21.1.0, SVG Export Plug-In . SVG Version: 6.00 Build 0)  -->
<svg version="1.1" id="Layer_1" xmlns="http://www.w3.org/2000/svg" xmlns:xlink="http://www.w3.org/1999/xlink" x="0px" y="0px"
	 viewBox="0 0 24 24" enable-background="new 0 0 24 24" xml:space="preserve">
<g>
	<path fill="#303C42" d="M19,0H5C3.8969727,0,3,0.8969727,3,2v1.5C3,3.7763672,3.2236328,4,3.5,4h0.5474854L5.368103,17.2042236
		C3.9953003,17.6777344,3,18.9685669,3,20.5C3,22.4296875,4.5703125,24,6.5,24c0.2714844,0,0.5328979-0.0380859,0.7868042-0.0968628
		C7.475647,23.9611206,7.6661377,24,7.8574219,24h8.2851563c1.0317383,0,1.8876953-0.7744141,1.9902344-1.8007813L19.9525146,4H20.5
		C20.7763672,4,21,3.7763672,21,3.5V2C21,0.8969727,20.1030273,0,19,0z"/>
	<circle fill="#676767" cx="6.5" cy="20.5" r="2.5"/>
	<path opacity="0.1" fill="#010101" d="M7.6866455,18.3133545C7.8800659,18.6680908,8,19.0683594,8,19.5
		C8,20.878418,6.878418,22,5.5,22c-0.4316406,0-0.8319092-0.1199341-1.1866455-0.3133545C4.7375488,22.4646606,5.5532227,23,6.5,23
		C7.878418,23,9,21.878418,9,20.5C9,19.5532227,8.4646606,18.7375488,7.6866455,18.3133545z"/>
	<path fill="#546F7A" d="M17.1376953,22.0996094C17.0864258,22.612793,16.6586914,23,16.1425781,23H8.9417114
		C9.5927734,22.3640137,10,21.4797363,10,20.5c0-1.9296875-1.5703125-3.5-3.5-3.5
		c-0.0499268,0-0.0963745,0.0126343-0.145752,0.0147095L5.0527344,4h13.8950195L17.1376953,22.0996094z"/>
	<path opacity="0.1" fill="#010101" d="M16.6950073,4l-1.6100464,16.0996094C15.0336914,20.612793,14.605957,21,14.0898438,21
		H9.9483643c-0.1134033,0.7769775-0.4694824,1.4752808-1.0066528,2h7.2008667c0.5161133,0,0.9438477-0.387207,0.9951172-0.9003906
		L18.9477539,4H16.6950073z"/>
	<path fill="#78909C" d="M20,3H4V2c0-0.5512695,0.4487305-1,1-1h14c0.5512695,0,1,0.4487305,1,1V3z"/>
	<path opacity="0.1" fill="#010101" d="M19,1h-0.5c0,0.5522461-0.4476929,1-1,1H4v1h16V2C20,1.4487305,19.5512695,1,19,1z"/>
	<circle fill="#303C42" cx="6.5" cy="20.5" r="0.5"/>
	<path fill="#303C42" d="M8.2641602,12.440918C8.3378906,12.4804688,8.4189453,12.5,8.5,12.5
		c0.097168,0,0.1938477-0.0283203,0.2773438-0.0839844l1.75-1.1665039c0.2299805-0.1533203,0.2919922-0.4633789,0.1386719-0.6933594
		s-0.4633789-0.2919922-0.6933594-0.1386719l-0.777832,0.5185547C9.6254883,9.8056641,10.7202148,9,12,9
		c0.9980469,0,1.9282227,0.4946289,2.4882813,1.3227539c0.1538086,0.2285156,0.4658203,0.2895508,0.6938477,0.1342773
		c0.2290039-0.1542969,0.2890625-0.465332,0.1342773-0.6938477C14.5708008,8.6591797,13.3305664,8,12,8
		c-2.2055664,0-4,1.7944336-4,4C8,12.1845703,8.1015625,12.3540039,8.2641602,12.440918z"/>
	<path fill="#303C42" d="M13.4726563,12.7504883c-0.2299805,0.1533203-0.2919922,0.4633789-0.1386719,0.6933594
		c0.1518555,0.2294922,0.4619141,0.2905273,0.6933594,0.1386719l0.777832-0.5185547C14.3745117,14.1943359,13.2797852,15,12,15
		c-0.9980469,0-1.9282227-0.4946289-2.4882813-1.3227539c-0.1542969-0.2285156-0.4663086-0.2895508-0.6938477-0.1342773
		c-0.2290039,0.1542969-0.2890625,0.465332-0.1342773,0.6938477C9.4291992,15.3408203,10.6694336,16,12,16
		c2.2055664,0,4-1.7944336,4-4c0-0.1845703-0.1015625-0.3540039-0.2641602-0.440918
		c-0.1616211-0.0874023-0.359375-0.0766602-0.5131836,0.0249023L13.4726563,12.7504883z"/>
	<linearGradient id="SVGID_1_" gradientUnits="userSpaceOnUse" x1="0.7117398" y1="6.4638762" x2="21.1512737" y2="15.9949875">
		<stop  offset="0" style="stop-color:#FFFFFF;stop-opacity:0.2"/>
		<stop  offset="1" style="stop-color:#FFFFFF;stop-opacity:0"/>
	</linearGradient>
	<path fill="url(#SVGID_1_)" d="M19,0H5C3.8969727,0,3,0.8969727,3,2v1.5C3,3.7763672,3.2236328,4,3.5,4h0.5474854
		L5.368103,17.2042236C3.9953003,17.6777344,3,18.9685669,3,20.5C3,22.4296875,4.5703125,24,6.5,24
		c0.2714844,0,0.5328979-0.0380859,0.7868042-0.0968628C7.475647,23.9611206,7.6661377,24,7.8574219,24h8.2851563
		c1.0317383,0,1.8876953-0.7744141,1.9902344-1.8007813L19.9525146,4H20.5C20.7763672,4,21,3.7763672,21,3.5V2
		C21,0.8969727,20.1030273,0,19,0z"/>
</g>
<g>
</g>
<g>
</g>
<g>
</g>
<g>
</g>
<g>
</g>
<g>
</g>
<g>
</g>
<g>
</g>
<g>
</g>
<g>
</g>
<g>
</g>
<g>
</g>
<g>
</g>
<g>
</g>
<g>
</g>
</svg>
